<?xml version="1.0" encoding="UTF-8"?>
<svg xmlns="http://www.w3.org/2000/svg" xmlns:xlink="http://www.w3.org/1999/xlink" viewBox="0 0 32 32" version="1.1" fill="#ed0006"><g id="surface1" fill="#ed0006"><path style=" " d="M 12 3 L 12 5 C 13.496094 5 14.296875 5.519531 14.6875 6.09375 C 10.402344 6.675781 7.023438 10.042969 6.28125 14.3125 C 5.023438 14.671875 4 15.636719 4 17 C 4 18.363281 5.023438 19.328125 6.28125 19.6875 C 7.097656 24.390625 11.101563 28 16 28 C 20.898438 28 24.902344 24.390625 25.71875 19.6875 C 26.976563 19.328125 28 18.363281 28 17 C 28 15.679688 27.035156 14.742188 25.84375 14.34375 C 25.09375 10.386719 22.125 7.203125 18.28125 6.28125 C 18.414063 6.109375 18.546875 6 19 6 L 19 4 C 17.910156 4 17.046875 4.546875 16.59375 5.1875 C 16.566406 5.226563 16.558594 5.273438 16.53125 5.3125 C 15.792969 4.007813 14.203125 3 12 3 Z M 16 8 C 20.09375 8 23.464844 11.105469 24 15.125 L 24.125 16 L 25 16 C 25.554688 16 26 16.445313 26 17 C 26 17.554688 25.554688 18 25 18 L 24 18 L 23.90625 18.875 C 23.460938 22.878906 20.09375 26 16 26 C 11.90625 26 8.539063 22.878906 8.09375 18.875 L 8 18 L 7 18 C 6.445313 18 6 17.554688 6 17 C 6 16.445313 6.445313 16 7 16 L 8 16 L 8.09375 15.125 C 8.539063 11.121094 11.90625 8 16 8 Z M 12.5 16 C 11.671875 16 11 16.671875 11 17.5 C 11 18.328125 11.671875 19 12.5 19 C 13.328125 19 14 18.328125 14 17.5 C 14 16.671875 13.328125 16 12.5 16 Z M 19.5 16 C 18.671875 16 18 16.671875 18 17.5 C 18 18.328125 18.671875 19 19.5 19 C 20.328125 19 21 18.328125 21 17.5 C 21 16.671875 20.328125 16 19.5 16 Z " fill="#ed0006"/></g></svg>
